HIERARCHY
ROOT root
{
	OFFSET 0.000000 0.000000 0.000000
	CHANNELS 6 Xposition Yposition Zposition Zrotation Yrotation Xrotation
	JOINT lhip
	{
		OFFSET 0.058581 -0.082280 -0.017664
		CHANNELS 3 Zrotation Yrotation Xrotation
		JOINT lknee
		{
			OFFSET 0.043451 -0.386469 0.008037
			CHANNELS 3 Zrotation Yrotation Xrotation
			JOINT lankle
			{
				OFFSET -0.014790 -0.426874 -0.037428
				CHANNELS 3 Zrotation Yrotation Xrotation
				JOINT ltoe
				{
					OFFSET 0.041054 -0.060286 0.122042
					CHANNELS 3 Zrotation Yrotation Xrotation
					End Site
					{
						OFFSET 0.000000 0.000000 0.000000
					}
				}
			}
		}
	}
	JOINT rhip
	{
		OFFSET -0.060310 -0.090513 -0.013543
		CHANNELS 3 Zrotation Yrotation Xrotation
		JOINT rknee
		{
			OFFSET -0.043257 -0.383688 -0.004843
			CHANNELS 3 Zrotation Yrotation Xrotation
			JOINT rankle
			{
				OFFSET 0.019056 -0.420046 -0.034562
				CHANNELS 3 Zrotation Yrotation Xrotation
				JOINT rtoe
				{
					OFFSET -0.034840 -0.062106 0.130323
					CHANNELS 3 Zrotation Yrotation Xrotation
					End Site
					{
						OFFSET 0.000000 0.000000 0.000000
					}
				}
			}
		}
	}
	JOINT lowerback
	{
		OFFSET 0.004439 0.124404 -0.038385
		CHANNELS 3 Zrotation Yrotation Xrotation
		JOINT upperback
		{
			OFFSET 0.004488 0.137956 0.026820
			CHANNELS 3 Zrotation Yrotation Xrotation
			JOINT chest
			{
				OFFSET -0.002265 0.056032 0.002855
				CHANNELS 3 Zrotation Yrotation Xrotation
				JOINT lowerneck
				{
					OFFSET -0.013390 0.211636 -0.033468
					CHANNELS 3 Zrotation Yrotation Xrotation
					JOINT upperneck
					{
						OFFSET 0.010113 0.088937 0.050410
						CHANNELS 3 Zrotation Yrotation Xrotation
						End Site
						{
							OFFSET 0.000000 0.000000 0.000000
						}
					}
				}
				JOINT lclavicle
				{
					OFFSET 0.071702 0.114000 -0.018898
					CHANNELS 3 Zrotation Yrotation Xrotation
					JOINT lshoulder
					{
						OFFSET 0.122921 0.045205 -0.019046
						CHANNELS 3 Zrotation Yrotation Xrotation
						JOINT lelbow
						{
							OFFSET 0.255332 -0.015649 -0.022946
							CHANNELS 3 Zrotation Yrotation Xrotation
							JOINT lwrist
							{
								OFFSET 0.265709 0.012698 -0.007375
								CHANNELS 3 Zrotation Yrotation Xrotation
								End Site
								{
									OFFSET 0.000000 0.000000 0.000000
								}
							}
						}
					}
				}
				JOINT rclavicle
				{
					OFFSET -0.082954 0.112472 -0.023707
					CHANNELS 3 Zrotation Yrotation Xrotation
					JOINT rshoulder
					{
						OFFSET -0.113228 0.046853 -0.008472
						CHANNELS 3 Zrotation Yrotation Xrotation
						JOINT relbow
						{
							OFFSET -0.260127 -0.014369 -0.031269
							CHANNELS 3 Zrotation Yrotation Xrotation
							JOINT rwrist
							{
								OFFSET -0.269108 0.006794 -0.006027
								CHANNELS 3 Zrotation Yrotation Xrotation
								End Site
								{
									OFFSET 0.000000 0.000000 0.000000
								}
							}
						}
					}
				}
			}
		}
	}
}
MOTION
Frames: 8
Frame Time: 0.033333
0.480396 0.242548 0.998107 105.001653 2.070570 102.710204 2.869412 2.310332 -14.470159 3.809766 -6.033898 -8.500448 -5.121447 5.767598 2.417890 0.000000 -0.000000 0.000000 -4.980561 -4.602221 -11.920646 -4.202785 -6.695965 0.489034 9.148608 -12.840226 -0.089393 0.000000 -0.000000 0.000000 -2.695454 0.303562 3.133210 8.223657 -10.419742 7.493189 7.342969 -2.771926 3.488119 -5.627282 5.124996 33.147424 14.545749 -1.240047 -27.235348 29.626104 -33.263907 -12.057779 -43.877007 -43.691518 10.723638 -7.941313 -40.793837 33.242232 0.271602 -13.682031 -8.779765 -27.572012 31.383131 -13.528418 61.395844 43.350398 22.530278 12.727305 23.929058 38.845912 -12.083061 5.002524 -20.260587 
0.480120 0.242644 0.997984 104.784997 1.888160 102.791927 2.609067 2.327761 -14.510359 3.836618 -6.221428 -8.574617 -5.108606 6.054463 2.442018 0.000000 -0.000000 0.000000 -5.190143 -4.580563 -12.056483 -4.231013 -6.430323 0.444116 9.089022 -12.963599 -0.106899 0.000000 -0.000000 0.000000 -2.143972 0.110091 3.563070 8.183403 -10.844584 7.284199 7.214616 -3.364810 3.237214 -6.126370 5.028501 32.952446 14.400930 -0.482016 -27.050233 28.949213 -35.103171 -11.652449 -43.901807 -44.245802 10.066371 -5.425214 -36.627140 30.836568 2.521658 -12.497162 -8.457085 -27.577784 31.585328 -13.932986 62.237244 43.286835 22.159968 11.892176 23.914875 38.547905 -12.775675 5.532835 -18.923032 
0.479762 0.242750 0.997706 104.411896 1.805944 102.853463 2.378726 2.515403 -14.490138 3.894680 -6.638792 -8.713054 -5.191860 6.714970 2.413175 0.000000 -0.000000 0.000000 -5.309977 -4.664105 -12.202932 -4.224401 -5.853398 0.359812 9.151744 -13.189701 -0.087739 0.000000 -0.000000 0.000000 -1.867328 -0.431923 4.000335 8.220952 -11.392321 6.878394 7.414773 -3.567738 3.663998 -7.179333 4.462248 32.190754 14.073597 0.776476 -26.734858 27.829802 -36.872973 -11.534701 -43.977188 -44.180400 9.658561 -3.632019 -32.948746 28.883767 6.382168 -10.304636 -8.668791 -27.749660 32.189498 -14.524267 59.703360 43.510004 20.570796 14.875656 24.852977 40.390976 -14.991541 4.470243 -18.790779 
0.479701 0.242877 0.997263 104.007624 1.697831 103.018606 2.160696 2.610562 -14.523338 3.933619 -6.770940 -8.888866 -5.193778 7.185619 2.456090 0.000000 -0.000000 0.000000 -5.445062 -4.775231 -12.461301 -4.227364 -5.327431 0.298150 9.234325 -13.270085 -0.114715 0.000000 -0.000000 0.000000 -1.486722 -0.752806 4.273659 8.160261 -11.935456 6.576969 7.421535 -3.982973 3.997758 -7.880086 4.000774 31.342982 13.741462 2.067979 -26.400069 26.405033 -38.335746 -11.400663 -44.247187 -43.944823 9.632488 -2.399560 -29.687057 27.290854 9.862629 -8.492637 -8.726285 -27.605389 32.372607 -14.988149 58.406677 43.449395 19.490623 16.240117 26.180191 41.025374 -17.240340 4.056841 -18.061674 
0.479750 0.242867 0.996995 103.534933 1.594581 103.170083 1.992948 2.599269 -14.470496 3.982197 -6.690940 -9.162648 -5.063527 7.523303 2.571640 0.000000 -0.000000 0.000000 -5.595023 -4.699325 -12.699901 -4.237198 -4.928473 0.214988 9.127487 -13.292199 -0.120982 0.000000 -0.000000 0.000000 -1.021804 -1.073490 4.591156 8.138017 -12.379310 6.666104 7.444475 -4.587085 3.710714 -8.203335 2.766248 29.814131 12.647972 3.257378 -25.365780 24.377742 -39.553663 -10.689075 -44.225099 -43.200873 9.653021 -1.431793 -27.671250 25.926995 12.218892 -7.417463 -8.806784 -27.461034 32.408475 -15.116420 58.077765 43.238111 19.069250 15.945831 28.256545 40.496114 -18.588526 4.694247 -17.417686 
0.479955 0.242895 0.996765 103.055869 1.488365 103.358358 1.819397 2.530499 -14.505597 4.038597 -6.547024 -9.304793 -4.904726 7.888024 2.541329 0.000000 -0.000000 0.000000 -5.781716 -4.654687 -12.998413 -4.178017 -4.620576 0.196759 9.047246 -13.188877 -0.188572 0.000000 -0.000000 0.000000 -0.639074 -1.424762 5.006293 8.067551 -12.801211 6.316516 7.456966 -5.044866 3.820956 -8.887628 1.817300 28.723080 12.095707 4.719385 -24.669455 22.764684 -40.510171 -10.255370 -44.280935 -42.040955 10.333209 -1.132188 -26.989854 24.710986 15.381763 -5.926586 -8.786029 -27.459401 32.381561 -15.635067 54.795846 42.878629 17.910542 19.858286 31.266026 42.497245 -19.821414 4.304979 -18.427592 
0.480065 0.242803 0.996849 102.543222 1.385940 103.592838 1.725069 2.372519 -14.573118 4.010468 -5.981829 -9.477808 -4.691286 7.844719 2.678025 0.000000 -0.000000 0.000000 -5.960859 -4.461350 -13.381632 -4.178835 -4.700411 0.213296 9.093847 -12.795469 -0.193638 0.000000 -0.000000 0.000000 -0.358879 -1.670309 5.261050 8.023204 -13.265096 6.353754 7.330884 -5.505967 3.516767 -9.246396 1.688807 28.216267 12.329291 5.650219 -24.437088 21.374312 -41.359767 -9.367986 -43.944345 -40.798773 10.671620 -0.652543 -27.180383 23.388203 17.090046 -5.840924 -8.833433 -27.175028 32.174377 -15.866570 53.602533 41.880971 17.358750 20.435032 34.488495 43.100425 -18.992095 5.548147 -18.339063 
0.480196 0.242533 0.996908 101.795075 1.452227 103.673103 1.758058 2.348793 -14.439942 4.101723 -5.657616 -9.647039 -4.504759 8.146084 2.580426 0.000000 -0.000000 0.000000 -5.943979 -4.313620 -13.720790 -4.156108 -4.376971 0.300217 9.007964 -12.492716 -0.201546 0.000000 -0.000000 0.000000 0.016765 -1.821262 5.782450 7.951688 -13.456578 6.030703 7.281315 -5.771350 3.572332 -9.740908 1.076213 27.427904 12.206885 7.058329 -23.766497 19.700413 -41.737368 -9.005071 -43.492073 -39.516596 11.376798 -0.900765 -28.048824 22.401623 18.879549 -4.899993 -8.826640 -27.056591 31.839364 -16.384650 49.395927 41.317817 16.052183 25.201694 37.243857 46.046628 -19.242111 5.323562 -19.110762 
